<svg width="628" height="125" viewBox="0 0 628 125" fill="none" xmlns="http://www.w3.org/2000/svg">
<path d="M0 8C0 3.58172 3.58172 0 8 0H84C92.8366 0 100 7.16344 100 16V68C100 85.6731 85.6731 100 68 100H16C7.16345 100 0 92.8366 0 84V8Z" fill="#28BBDC"/>
<path d="M15.84 21.4C15.84 16.64 15.1867 13.14 13.88 10.9C12.5733 8.56666 9.95999 7.39999 6.03999 7.39999H3.23999V4.59999H15.84C19.2933 4.59999 21.86 5.06666 23.54 5.99999C25.3133 6.83999 26.5733 8.42666 27.32 10.76C28.0667 13.0933 28.44 16.64 28.44 21.4V46.6H70.44V4.59999H83.04V80.2C83.04 84.96 83.6933 88.5067 85 90.84C86.3067 93.08 88.92 94.2 92.84 94.2H95.64V97H83.04C79.5867 97 76.9733 96.58 75.2 95.74C73.52 94.8067 72.3067 93.1733 71.56 90.84C70.8133 88.5067 70.44 84.96 70.44 80.2V52.2H28.44V97H15.84V21.4Z" fill="#FBF9FF"/>
<path d="M137.1 98.4C130.753 98.4 125.247 96.9067 120.58 93.92C115.913 90.84 112.367 86.6867 109.94 81.46C107.513 76.2333 106.3 70.4467 106.3 64.1C106.3 57.7533 107.513 51.9667 109.94 46.74C112.367 41.5133 115.913 37.4067 120.58 34.42C125.247 31.34 130.753 29.8 137.1 29.8C143.447 29.8 148.953 31.34 153.62 34.42C158.287 37.4067 161.833 41.5133 164.26 46.74C166.687 51.9667 167.9 57.7533 167.9 64.1C167.9 70.4467 166.687 76.2333 164.26 81.46C161.833 86.6867 158.287 90.84 153.62 93.92C148.953 96.9067 143.447 98.4 137.1 98.4ZM137.1 92.8C140.553 92.8 143.587 91.54 146.2 89.02C148.907 86.5 150.96 83.0467 152.36 78.66C153.853 74.2733 154.6 69.42 154.6 64.1C154.6 58.78 153.853 53.9267 152.36 49.54C150.96 45.1533 148.907 41.7 146.2 39.18C143.587 36.66 140.553 35.4 137.1 35.4C133.647 35.4 130.567 36.66 127.86 39.18C125.247 41.7 123.193 45.1533 121.7 49.54C120.3 53.9267 119.6 58.78 119.6 64.1C119.6 69.42 120.3 74.2733 121.7 78.66C123.193 83.0467 125.247 86.5 127.86 89.02C130.567 91.54 133.647 92.8 137.1 92.8Z" fill="url(#paint0_linear)"/>
<path d="M215.818 98.4C211.058 98.4 207.138 97.6533 204.058 96.16C200.978 94.6667 198.598 92.8467 196.918 90.7H196.218L191.318 97H184.318V21.4C184.318 16.64 183.665 13.14 182.358 10.9C181.052 8.56666 178.438 7.39999 174.518 7.39999H171.718V4.59999H184.318C187.772 4.59999 190.338 5.06666 192.018 5.99999C193.792 6.83999 195.052 8.42666 195.798 10.76C196.545 13.0933 196.918 16.64 196.918 21.4V34C199.625 32.6933 202.332 31.6667 205.038 30.92C207.745 30.1733 210.872 29.8 214.418 29.8C223.098 29.8 229.678 33.02 234.158 39.46C238.732 45.9 241.018 54.1133 241.018 64.1C241.018 73.9933 238.825 82.2067 234.438 88.74C230.052 95.18 223.845 98.4 215.818 98.4ZM211.618 92.8C216.938 92.8 220.952 90.1867 223.658 84.96C226.365 79.64 227.718 72.6867 227.718 64.1C227.718 55.42 226.272 48.4667 223.378 43.24C220.578 38.0133 216.192 35.4 210.218 35.4C208.258 35.4 206.252 35.7733 204.198 36.52C202.145 37.2667 199.718 38.2933 196.918 39.6V84.4C198.598 86.92 200.558 88.9733 202.798 90.56C205.132 92.0533 208.072 92.8 211.618 92.8Z" fill="url(#paint1_linear)"/>
<path d="M289.1 98.4C284.34 98.4 280.42 97.6533 277.34 96.16C274.26 94.6667 271.88 92.8467 270.2 90.7H269.5L264.6 97H257.6V21.4C257.6 16.64 256.946 13.14 255.64 10.9C254.333 8.56666 251.72 7.39999 247.8 7.39999H245V4.59999H257.6C261.053 4.59999 263.62 5.06666 265.3 5.99999C267.073 6.83999 268.333 8.42666 269.08 10.76C269.826 13.0933 270.2 16.64 270.2 21.4V34C272.906 32.6933 275.613 31.6667 278.32 30.92C281.026 30.1733 284.153 29.8 287.7 29.8C296.38 29.8 302.96 33.02 307.44 39.46C312.013 45.9 314.3 54.1133 314.3 64.1C314.3 73.9933 312.106 82.2067 307.72 88.74C303.333 95.18 297.126 98.4 289.1 98.4ZM284.9 92.8C290.22 92.8 294.233 90.1867 296.94 84.96C299.646 79.64 301 72.6867 301 64.1C301 55.42 299.553 48.4667 296.66 43.24C293.86 38.0133 289.473 35.4 283.5 35.4C281.54 35.4 279.533 35.7733 277.48 36.52C275.426 37.2667 273 38.2933 270.2 39.6V84.4C271.88 86.92 273.84 88.9733 276.08 90.56C278.413 92.0533 281.353 92.8 284.9 92.8Z" fill="url(#paint2_linear)"/>
<path d="M333.45 120.8C338.023 120.8 341.757 119.727 344.65 117.58C347.637 115.527 350.203 111.7 352.35 106.1L355.15 98.4L332.75 43.8C330.137 37.08 325.003 33.3467 317.35 32.6V29.8H329.25C337.37 29.8 342.97 33.5333 346.05 41L362.01 79.78L379.65 31.2H386.65L359.35 106.1C356.643 113.473 353.657 118.467 350.39 121.08C347.123 123.693 342.877 125 337.65 125H333.45V120.8Z" fill="url(#paint3_linear)"/>
<path d="M402.844 48C402.844 43.24 402.191 39.74 400.884 37.5C399.577 35.1667 396.964 34 393.044 34H390.244V31.2H402.844C406.297 31.2 408.911 31.6667 410.684 32.6C412.551 33.5333 413.904 34.9333 414.744 36.8H415.444C417.404 34.84 419.924 33.2067 423.004 31.9C426.177 30.5 429.724 29.8 433.644 29.8C440.644 29.8 446.337 31.6667 450.724 35.4C455.204 39.1333 457.444 45.6667 457.444 55V97H444.844V55C444.844 48.4667 443.351 43.7067 440.364 40.72C437.471 37.64 433.831 36.1 429.444 36.1C424.497 36.1 419.831 38.5733 415.444 43.52V97H402.844V48Z" fill="url(#paint4_linear)"/>
<path d="M484.316 22.8C482.17 22.8 480.303 21.9133 478.716 20.14C477.223 18.3667 476.476 16.2667 476.476 13.84C476.476 11.88 477.036 10.34 478.156 9.21999C479.37 8.09999 480.956 7.53999 482.916 7.53999C485.063 7.53999 486.883 8.42666 488.376 10.2C489.963 11.9733 490.756 14.0733 490.756 16.5C490.756 18.46 490.15 20 488.936 21.12C487.816 22.24 486.276 22.8 484.316 22.8ZM478.996 48C478.996 43.24 478.343 39.74 477.036 37.5C475.73 35.1667 473.116 34 469.196 34H466.396V31.2H478.996C482.45 31.2 485.016 31.6667 486.696 32.6C488.47 33.44 489.73 35.0267 490.476 37.36C491.223 39.6933 491.596 43.24 491.596 48V97H478.996V48Z" fill="url(#paint5_linear)"/>
<path d="M507.43 94.34L543.83 36.8H527.73C521.943 36.8 517.556 37.92 514.57 40.16C511.676 42.3067 510.23 45.3867 510.23 49.4H507.43V42.4C507.43 34.9333 511.396 31.2 519.33 31.2H562.03L524.23 91.4H562.03V97H507.43V94.34Z" fill="url(#paint6_linear)"/>
<path d="M601.091 98.4C594.744 98.4 589.377 96.9067 584.991 93.92C580.604 90.84 577.291 86.7333 575.051 81.6C572.811 76.3733 571.691 70.54 571.691 64.1C571.691 57.7533 572.811 51.9667 575.051 46.74C577.291 41.5133 580.511 37.4067 584.711 34.42C589.004 31.34 593.997 29.8 599.691 29.8C609.117 29.8 616.117 32.46 620.691 37.78C625.357 43.0067 627.691 50.6133 627.691 60.6L627.411 66.2H584.991C584.991 74.04 586.671 80.4333 590.031 85.38C593.391 90.3267 598.011 92.8 603.891 92.8C608.277 92.8 611.964 91.8667 614.951 90C618.031 88.1333 620.877 85.3333 623.491 81.6L626.291 83.7C623.211 88.8333 619.617 92.5667 615.511 94.9C611.404 97.2333 606.597 98.4 601.091 98.4ZM614.391 60.6C614.391 52.3867 613.177 46.1333 610.751 41.84C608.324 37.5467 604.637 35.4 599.691 35.4C596.891 35.4 594.371 36.52 592.131 38.76C589.891 40.9067 588.117 43.8933 586.811 47.72C585.597 51.5467 584.991 55.84 584.991 60.6H614.391Z" fill="url(#paint7_linear)"/>
<defs>
<linearGradient id="paint0_linear" x1="106.3" y1="64.9506" x2="627.691" y2="64.9506" gradientUnits="userSpaceOnUse">
<stop stop-color="#28BBDC"/>
<stop offset="0.500004" stop-color="#6340FF"/>
<stop offset="1" stop-color="#A512CA"/>
</linearGradient>
<linearGradient id="paint1_linear" x1="106.3" y1="64.9506" x2="627.691" y2="64.9506" gradientUnits="userSpaceOnUse">
<stop stop-color="#28BBDC"/>
<stop offset="0.500004" stop-color="#6340FF"/>
<stop offset="1" stop-color="#A512CA"/>
</linearGradient>
<linearGradient id="paint2_linear" x1="106.3" y1="64.9506" x2="627.691" y2="64.9506" gradientUnits="userSpaceOnUse">
<stop stop-color="#28BBDC"/>
<stop offset="0.500004" stop-color="#6340FF"/>
<stop offset="1" stop-color="#A512CA"/>
</linearGradient>
<linearGradient id="paint3_linear" x1="106.3" y1="64.9506" x2="627.691" y2="64.9506" gradientUnits="userSpaceOnUse">
<stop stop-color="#28BBDC"/>
<stop offset="0.500004" stop-color="#6340FF"/>
<stop offset="1" stop-color="#A512CA"/>
</linearGradient>
<linearGradient id="paint4_linear" x1="106.3" y1="64.9506" x2="627.691" y2="64.9506" gradientUnits="userSpaceOnUse">
<stop stop-color="#28BBDC"/>
<stop offset="0.500004" stop-color="#6340FF"/>
<stop offset="1" stop-color="#A512CA"/>
</linearGradient>
<linearGradient id="paint5_linear" x1="106.3" y1="64.9506" x2="627.691" y2="64.9506" gradientUnits="userSpaceOnUse">
<stop stop-color="#28BBDC"/>
<stop offset="0.500004" stop-color="#6340FF"/>
<stop offset="1" stop-color="#A512CA"/>
</linearGradient>
<linearGradient id="paint6_linear" x1="106.3" y1="64.9506" x2="627.691" y2="64.9506" gradientUnits="userSpaceOnUse">
<stop stop-color="#28BBDC"/>
<stop offset="0.500004" stop-color="#6340FF"/>
<stop offset="1" stop-color="#A512CA"/>
</linearGradient>
<linearGradient id="paint7_linear" x1="106.3" y1="64.9506" x2="627.691" y2="64.9506" gradientUnits="userSpaceOnUse">
<stop stop-color="#28BBDC"/>
<stop offset="0.500004" stop-color="#6340FF"/>
<stop offset="1" stop-color="#A512CA"/>
</linearGradient>
</defs>
</svg>
